# xmcd CD database file
#
# Track frame offsets:
#	150
#	15298
#	36610
#	55887
#	72300
#	90082
#	107405
#	128000
#	146331
#	166698
#	181392
#	199947
#	219048
#
# Disc length: 3141 seconds
#
# Revision: 2
# Processed by: cddbd v1.5.2PL0 Copyright (c) Steve Scherf et al.
# Submitted via: CDex 1.70beta3
#
DISCID=a10c430d
DTITLE=Dakota - Lost Tracks
DYEAR=1987
DGENRE=Melodic Rock
TTITLE0=Mr. Lucky
TTITLE1=Heaven Or Hell
TTITLE2=Believin'
TTITLE3=Remenber Me
TTITLE4=All Through The Night
TTITLE5=These Eyes
TTITLE6=Forever To Never
TTITLE7=Good Old Time
TTITLE8=One For Heart
TTITLE9=The Next Time
TTITLE10=My Turn Now
TTITLE11=Hot Summer Night
TTITLE12=Cross That Line
EXTD=YEAR: 1987
EXTT0=
EXTT1=
EXTT2=
EXTT3=
EXTT4=
EXTT5=
EXTT6=
EXTT7=
EXTT8=
EXTT9=
EXTT10=
EXTT11=
EXTT12=
PLAYORDER=
